<mxfile host="app.diagrams.net" modified="2022-12-04T13:56:56.858Z" agent="5.0 (Windows NT 10.0; Win64; x64) AppleWebKit/537.36 (KHTML, like Gecko) Chrome/108.0.0.0 Safari/537.36" etag="lWJDivg53WvbcMo9lNH4" version="20.6.0" type="github">
  <diagram id="C5RBs43oDa-KdzZeNtuy" name="Page-1">
    <mxGraphModel dx="2844" dy="1588" grid="1" gridSize="10" guides="1" tooltips="1" connect="1" arrows="1" fold="1" page="1" pageScale="1" pageWidth="827" pageHeight="1169" background="#114B5F" math="0" shadow="0">
      <root>
        <mxCell id="WIyWlLk6GJQsqaUBKTNV-0" />
        <mxCell id="WIyWlLk6GJQsqaUBKTNV-1" parent="WIyWlLk6GJQsqaUBKTNV-0" />
        <mxCell id="bWJGfPtAxf72XsbmLZ3L-1" value="" style="edgeStyle=orthogonalEdgeStyle;rounded=0;orthogonalLoop=1;jettySize=auto;html=1;strokeColor=#028090;fontColor=#E4FDE1;fillColor=#F45B69;" edge="1" parent="WIyWlLk6GJQsqaUBKTNV-1" source="WIyWlLk6GJQsqaUBKTNV-3" target="bWJGfPtAxf72XsbmLZ3L-0">
          <mxGeometry relative="1" as="geometry" />
        </mxCell>
        <mxCell id="WIyWlLk6GJQsqaUBKTNV-3" value="Info-page 활성화" style="rounded=1;whiteSpace=wrap;html=1;fontSize=12;glass=0;strokeWidth=1;shadow=0;fillColor=#F45B69;strokeColor=#028090;fontColor=#E4FDE1;" parent="WIyWlLk6GJQsqaUBKTNV-1" vertex="1">
          <mxGeometry x="396" y="40" width="120" height="40" as="geometry" />
        </mxCell>
        <mxCell id="bWJGfPtAxf72XsbmLZ3L-3" value="" style="edgeStyle=orthogonalEdgeStyle;rounded=0;orthogonalLoop=1;jettySize=auto;html=1;strokeColor=#028090;fontColor=#E4FDE1;fillColor=#F45B69;startArrow=none;exitX=0.5;exitY=1;exitDx=0;exitDy=0;" edge="1" parent="WIyWlLk6GJQsqaUBKTNV-1" source="bWJGfPtAxf72XsbmLZ3L-19" target="bWJGfPtAxf72XsbmLZ3L-2">
          <mxGeometry relative="1" as="geometry" />
        </mxCell>
        <mxCell id="bWJGfPtAxf72XsbmLZ3L-5" value="" style="edgeStyle=orthogonalEdgeStyle;rounded=0;orthogonalLoop=1;jettySize=auto;html=1;strokeColor=#028090;fontColor=#E4FDE1;fillColor=#F45B69;startArrow=none;exitX=0.5;exitY=1;exitDx=0;exitDy=0;entryX=0.5;entryY=0;entryDx=0;entryDy=0;" edge="1" parent="WIyWlLk6GJQsqaUBKTNV-1" source="bWJGfPtAxf72XsbmLZ3L-22" target="bWJGfPtAxf72XsbmLZ3L-18">
          <mxGeometry relative="1" as="geometry">
            <mxPoint x="662" y="289.9999999999999" as="targetPoint" />
          </mxGeometry>
        </mxCell>
        <mxCell id="bWJGfPtAxf72XsbmLZ3L-0" value="좌측 탭에&lt;br&gt;Profile, Message&amp;nbsp;&lt;br&gt;기본값으로 Profile 활성화" style="shape=document;whiteSpace=wrap;html=1;boundedLbl=1;fillColor=#76608a;strokeColor=#432D57;fontColor=#ffffff;rounded=1;glass=0;strokeWidth=1;shadow=0;" vertex="1" parent="WIyWlLk6GJQsqaUBKTNV-1">
          <mxGeometry x="378" y="140" width="156" height="80" as="geometry" />
        </mxCell>
        <mxCell id="bWJGfPtAxf72XsbmLZ3L-11" value="" style="edgeStyle=orthogonalEdgeStyle;rounded=0;orthogonalLoop=1;jettySize=auto;html=1;strokeColor=#028090;fontColor=#E4FDE1;fillColor=#F45B69;startArrow=none;" edge="1" parent="WIyWlLk6GJQsqaUBKTNV-1" source="bWJGfPtAxf72XsbmLZ3L-12" target="bWJGfPtAxf72XsbmLZ3L-10">
          <mxGeometry relative="1" as="geometry" />
        </mxCell>
        <mxCell id="bWJGfPtAxf72XsbmLZ3L-15" value="" style="edgeStyle=orthogonalEdgeStyle;rounded=0;orthogonalLoop=1;jettySize=auto;html=1;strokeColor=#028090;fontColor=#E4FDE1;fillColor=#F45B69;startArrow=none;" edge="1" parent="WIyWlLk6GJQsqaUBKTNV-1" source="bWJGfPtAxf72XsbmLZ3L-16" target="bWJGfPtAxf72XsbmLZ3L-14">
          <mxGeometry relative="1" as="geometry" />
        </mxCell>
        <mxCell id="bWJGfPtAxf72XsbmLZ3L-2" value="[톱니바퀴]&lt;br&gt;아이콘&lt;br&gt;클릭유무" style="rhombus;whiteSpace=wrap;html=1;fillColor=#6d8764;strokeColor=#3A5431;fontColor=#ffffff;rounded=1;glass=0;strokeWidth=1;shadow=0;" vertex="1" parent="WIyWlLk6GJQsqaUBKTNV-1">
          <mxGeometry x="141" y="420" width="100" height="100" as="geometry" />
        </mxCell>
        <mxCell id="bWJGfPtAxf72XsbmLZ3L-6" value="Profile" style="text;html=1;align=center;verticalAlign=middle;resizable=0;points=[];autosize=1;strokeColor=#B09500;fillColor=#e3c800;fontColor=#000000;" vertex="1" parent="WIyWlLk6GJQsqaUBKTNV-1">
          <mxGeometry x="272" y="165" width="60" height="30" as="geometry" />
        </mxCell>
        <mxCell id="bWJGfPtAxf72XsbmLZ3L-7" value="" style="edgeStyle=orthogonalEdgeStyle;rounded=0;orthogonalLoop=1;jettySize=auto;html=1;strokeColor=#028090;fontColor=#E4FDE1;fillColor=#F45B69;endArrow=none;" edge="1" parent="WIyWlLk6GJQsqaUBKTNV-1" source="bWJGfPtAxf72XsbmLZ3L-0" target="bWJGfPtAxf72XsbmLZ3L-6">
          <mxGeometry relative="1" as="geometry">
            <mxPoint x="378" y="180" as="sourcePoint" />
            <mxPoint x="252" y="290" as="targetPoint" />
          </mxGeometry>
        </mxCell>
        <mxCell id="bWJGfPtAxf72XsbmLZ3L-8" value="Message" style="text;html=1;align=center;verticalAlign=middle;resizable=0;points=[];autosize=1;strokeColor=#B09500;fillColor=#e3c800;fontColor=#000000;" vertex="1" parent="WIyWlLk6GJQsqaUBKTNV-1">
          <mxGeometry x="572" y="165" width="70" height="30" as="geometry" />
        </mxCell>
        <mxCell id="bWJGfPtAxf72XsbmLZ3L-9" value="" style="edgeStyle=orthogonalEdgeStyle;rounded=0;orthogonalLoop=1;jettySize=auto;html=1;strokeColor=#028090;fontColor=#E4FDE1;fillColor=#F45B69;endArrow=none;" edge="1" parent="WIyWlLk6GJQsqaUBKTNV-1" source="bWJGfPtAxf72XsbmLZ3L-0" target="bWJGfPtAxf72XsbmLZ3L-8">
          <mxGeometry relative="1" as="geometry">
            <mxPoint x="534" y="180" as="sourcePoint" />
            <mxPoint x="652" y="290" as="targetPoint" />
          </mxGeometry>
        </mxCell>
        <mxCell id="bWJGfPtAxf72XsbmLZ3L-10" value="현재까지의 설정값 기준 사용자의 기본정보 출력" style="shape=document;whiteSpace=wrap;html=1;boundedLbl=1;fillColor=#76608a;strokeColor=#432D57;fontColor=#ffffff;rounded=1;glass=0;strokeWidth=1;shadow=0;" vertex="1" parent="WIyWlLk6GJQsqaUBKTNV-1">
          <mxGeometry x="311" y="435" width="140" height="70" as="geometry" />
        </mxCell>
        <mxCell id="bWJGfPtAxf72XsbmLZ3L-12" value="NO" style="text;html=1;align=center;verticalAlign=middle;resizable=0;points=[];autosize=1;strokeColor=none;fillColor=none;fontColor=#E4FDE1;" vertex="1" parent="WIyWlLk6GJQsqaUBKTNV-1">
          <mxGeometry x="256" y="455" width="40" height="30" as="geometry" />
        </mxCell>
        <mxCell id="bWJGfPtAxf72XsbmLZ3L-13" value="" style="edgeStyle=orthogonalEdgeStyle;rounded=0;orthogonalLoop=1;jettySize=auto;html=1;strokeColor=#028090;fontColor=#E4FDE1;fillColor=#F45B69;endArrow=none;" edge="1" parent="WIyWlLk6GJQsqaUBKTNV-1" source="bWJGfPtAxf72XsbmLZ3L-2" target="bWJGfPtAxf72XsbmLZ3L-12">
          <mxGeometry relative="1" as="geometry">
            <mxPoint x="241" y="470" as="sourcePoint" />
            <mxPoint x="311" y="470" as="targetPoint" />
          </mxGeometry>
        </mxCell>
        <mxCell id="bWJGfPtAxf72XsbmLZ3L-25" value="" style="edgeStyle=orthogonalEdgeStyle;rounded=0;orthogonalLoop=1;jettySize=auto;html=1;strokeColor=#028090;fontColor=#E4FDE1;endArrow=classic;endFill=1;fillColor=#F45B69;" edge="1" parent="WIyWlLk6GJQsqaUBKTNV-1" source="bWJGfPtAxf72XsbmLZ3L-14" target="bWJGfPtAxf72XsbmLZ3L-24">
          <mxGeometry relative="1" as="geometry" />
        </mxCell>
        <mxCell id="bWJGfPtAxf72XsbmLZ3L-14" value="Thumbnail, 사용자 이름, 비밀번호를 포함한 개인정보를 수정할 수 있는 아이콘 활성화.&lt;br&gt;[톱니바퀴] 는 [저장] 으로 변경." style="shape=document;whiteSpace=wrap;html=1;boundedLbl=1;fillColor=#76608a;strokeColor=#432D57;fontColor=#ffffff;rounded=1;glass=0;strokeWidth=1;shadow=0;" vertex="1" parent="WIyWlLk6GJQsqaUBKTNV-1">
          <mxGeometry x="91" y="610" width="200" height="100" as="geometry" />
        </mxCell>
        <mxCell id="bWJGfPtAxf72XsbmLZ3L-16" value="YES" style="text;html=1;align=center;verticalAlign=middle;resizable=0;points=[];autosize=1;strokeColor=none;fillColor=none;fontColor=#E4FDE1;" vertex="1" parent="WIyWlLk6GJQsqaUBKTNV-1">
          <mxGeometry x="166" y="545" width="50" height="30" as="geometry" />
        </mxCell>
        <mxCell id="bWJGfPtAxf72XsbmLZ3L-17" value="" style="edgeStyle=orthogonalEdgeStyle;rounded=0;orthogonalLoop=1;jettySize=auto;html=1;strokeColor=#028090;fontColor=#E4FDE1;fillColor=#F45B69;endArrow=none;" edge="1" parent="WIyWlLk6GJQsqaUBKTNV-1" source="bWJGfPtAxf72XsbmLZ3L-2" target="bWJGfPtAxf72XsbmLZ3L-16">
          <mxGeometry relative="1" as="geometry">
            <mxPoint x="191" y="520" as="sourcePoint" />
            <mxPoint x="191" y="610" as="targetPoint" />
          </mxGeometry>
        </mxCell>
        <mxCell id="bWJGfPtAxf72XsbmLZ3L-18" value="사용자에게 수신된, &lt;br&gt;알람을 제외한 message 목록 출력" style="shape=document;whiteSpace=wrap;html=1;boundedLbl=1;fillColor=#76608a;strokeColor=#432D57;fontColor=#ffffff;rounded=1;glass=0;strokeWidth=1;shadow=0;" vertex="1" parent="WIyWlLk6GJQsqaUBKTNV-1">
          <mxGeometry x="639.5" y="420" width="140" height="70" as="geometry" />
        </mxCell>
        <mxCell id="bWJGfPtAxf72XsbmLZ3L-19" value="계정의 token 을 기반으로 사용자 정보 호출" style="whiteSpace=wrap;html=1;fillColor=#F45B69;strokeColor=#028090;fontColor=#E4FDE1;rounded=1;glass=0;strokeWidth=1;shadow=0;" vertex="1" parent="WIyWlLk6GJQsqaUBKTNV-1">
          <mxGeometry x="123.5" y="260" width="135" height="60" as="geometry" />
        </mxCell>
        <mxCell id="bWJGfPtAxf72XsbmLZ3L-21" value="" style="edgeStyle=orthogonalEdgeStyle;rounded=0;orthogonalLoop=1;jettySize=auto;html=1;strokeColor=#028090;fontColor=#E4FDE1;fillColor=#F45B69;startArrow=none;exitX=-0.017;exitY=0.5;exitDx=0;exitDy=0;exitPerimeter=0;endArrow=classic;endFill=1;" edge="1" parent="WIyWlLk6GJQsqaUBKTNV-1" source="bWJGfPtAxf72XsbmLZ3L-6" target="bWJGfPtAxf72XsbmLZ3L-19">
          <mxGeometry relative="1" as="geometry">
            <mxPoint x="285.98" y="180" as="sourcePoint" />
            <mxPoint x="167" y="460" as="targetPoint" />
          </mxGeometry>
        </mxCell>
        <mxCell id="bWJGfPtAxf72XsbmLZ3L-22" value="계정의 token 을 기반으로 message 목록 호출" style="whiteSpace=wrap;html=1;fillColor=#F45B69;strokeColor=#028090;fontColor=#E4FDE1;rounded=1;glass=0;strokeWidth=1;shadow=0;" vertex="1" parent="WIyWlLk6GJQsqaUBKTNV-1">
          <mxGeometry x="642" y="260" width="135" height="60" as="geometry" />
        </mxCell>
        <mxCell id="bWJGfPtAxf72XsbmLZ3L-23" value="" style="edgeStyle=orthogonalEdgeStyle;rounded=0;orthogonalLoop=1;jettySize=auto;html=1;strokeColor=#028090;fontColor=#E4FDE1;fillColor=#F45B69;startArrow=none;exitX=0.986;exitY=0.5;exitDx=0;exitDy=0;exitPerimeter=0;entryX=0.5;entryY=0;entryDx=0;entryDy=0;endArrow=none;" edge="1" parent="WIyWlLk6GJQsqaUBKTNV-1" source="bWJGfPtAxf72XsbmLZ3L-8" target="bWJGfPtAxf72XsbmLZ3L-22">
          <mxGeometry relative="1" as="geometry">
            <mxPoint x="641.0200000000002" y="180" as="sourcePoint" />
            <mxPoint x="702" y="460" as="targetPoint" />
          </mxGeometry>
        </mxCell>
        <mxCell id="bWJGfPtAxf72XsbmLZ3L-27" value="" style="edgeStyle=orthogonalEdgeStyle;rounded=0;orthogonalLoop=1;jettySize=auto;html=1;strokeColor=#028090;fontColor=#E4FDE1;endArrow=classic;endFill=1;fillColor=#F45B69;startArrow=none;" edge="1" parent="WIyWlLk6GJQsqaUBKTNV-1" source="bWJGfPtAxf72XsbmLZ3L-28" target="bWJGfPtAxf72XsbmLZ3L-26">
          <mxGeometry relative="1" as="geometry" />
        </mxCell>
        <mxCell id="bWJGfPtAxf72XsbmLZ3L-34" value="" style="edgeStyle=orthogonalEdgeStyle;rounded=0;orthogonalLoop=1;jettySize=auto;html=1;strokeColor=#028090;fontColor=#E4FDE1;endArrow=classic;endFill=1;fillColor=#F45B69;startArrow=none;" edge="1" parent="WIyWlLk6GJQsqaUBKTNV-1" source="bWJGfPtAxf72XsbmLZ3L-35" target="bWJGfPtAxf72XsbmLZ3L-33">
          <mxGeometry relative="1" as="geometry">
            <Array as="points">
              <mxPoint x="191" y="950" />
              <mxPoint x="123" y="950" />
            </Array>
          </mxGeometry>
        </mxCell>
        <mxCell id="bWJGfPtAxf72XsbmLZ3L-24" value="수정사항유무" style="rhombus;whiteSpace=wrap;html=1;fillColor=#6d8764;strokeColor=#3A5431;fontColor=#ffffff;rounded=1;glass=0;strokeWidth=1;shadow=0;" vertex="1" parent="WIyWlLk6GJQsqaUBKTNV-1">
          <mxGeometry x="145.5" y="780" width="91" height="85" as="geometry" />
        </mxCell>
        <mxCell id="bWJGfPtAxf72XsbmLZ3L-41" style="edgeStyle=orthogonalEdgeStyle;rounded=0;orthogonalLoop=1;jettySize=auto;html=1;exitX=1;exitY=0.5;exitDx=0;exitDy=0;entryX=1;entryY=0.25;entryDx=0;entryDy=0;strokeColor=#028090;fontColor=#E4FDE1;endArrow=classic;endFill=1;fillColor=#F45B69;" edge="1" parent="WIyWlLk6GJQsqaUBKTNV-1" source="bWJGfPtAxf72XsbmLZ3L-26" target="bWJGfPtAxf72XsbmLZ3L-10">
          <mxGeometry relative="1" as="geometry">
            <Array as="points">
              <mxPoint x="600" y="778" />
              <mxPoint x="600" y="453" />
            </Array>
          </mxGeometry>
        </mxCell>
        <mxCell id="bWJGfPtAxf72XsbmLZ3L-26" value="[저장] 버튼 클릭 시,&lt;br&gt;&#39;저장되었습니다&#39; message 출력 후, api 호출 없이 reload." style="whiteSpace=wrap;html=1;fillColor=#F45B69;strokeColor=#028090;fontColor=#E4FDE1;rounded=1;glass=0;strokeWidth=1;shadow=0;" vertex="1" parent="WIyWlLk6GJQsqaUBKTNV-1">
          <mxGeometry x="378" y="747.5" width="164" height="60" as="geometry" />
        </mxCell>
        <mxCell id="bWJGfPtAxf72XsbmLZ3L-30" value="" style="edgeStyle=orthogonalEdgeStyle;rounded=0;orthogonalLoop=1;jettySize=auto;html=1;strokeColor=#028090;fontColor=#E4FDE1;endArrow=classic;endFill=1;fillColor=#F45B69;" edge="1" parent="WIyWlLk6GJQsqaUBKTNV-1" source="bWJGfPtAxf72XsbmLZ3L-28" target="bWJGfPtAxf72XsbmLZ3L-26">
          <mxGeometry relative="1" as="geometry" />
        </mxCell>
        <mxCell id="bWJGfPtAxf72XsbmLZ3L-32" style="edgeStyle=orthogonalEdgeStyle;rounded=0;orthogonalLoop=1;jettySize=auto;html=1;entryX=0;entryY=0.5;entryDx=0;entryDy=0;strokeColor=#028090;fontColor=#E4FDE1;endArrow=classic;endFill=1;fillColor=#F45B69;" edge="1" parent="WIyWlLk6GJQsqaUBKTNV-1" source="bWJGfPtAxf72XsbmLZ3L-28" target="bWJGfPtAxf72XsbmLZ3L-31">
          <mxGeometry relative="1" as="geometry" />
        </mxCell>
        <mxCell id="bWJGfPtAxf72XsbmLZ3L-28" value="NO" style="text;html=1;align=center;verticalAlign=middle;resizable=0;points=[];autosize=1;strokeColor=none;fillColor=none;fontColor=#E4FDE1;" vertex="1" parent="WIyWlLk6GJQsqaUBKTNV-1">
          <mxGeometry x="259" y="807.5" width="40" height="30" as="geometry" />
        </mxCell>
        <mxCell id="bWJGfPtAxf72XsbmLZ3L-29" value="" style="edgeStyle=orthogonalEdgeStyle;rounded=0;orthogonalLoop=1;jettySize=auto;html=1;strokeColor=#028090;fontColor=#E4FDE1;endArrow=none;endFill=1;fillColor=#F45B69;" edge="1" parent="WIyWlLk6GJQsqaUBKTNV-1" source="bWJGfPtAxf72XsbmLZ3L-24" target="bWJGfPtAxf72XsbmLZ3L-28">
          <mxGeometry relative="1" as="geometry">
            <mxPoint x="236.50000000000023" y="822.5" as="sourcePoint" />
            <mxPoint x="321" y="822.5" as="targetPoint" />
          </mxGeometry>
        </mxCell>
        <mxCell id="bWJGfPtAxf72XsbmLZ3L-40" style="edgeStyle=orthogonalEdgeStyle;rounded=0;orthogonalLoop=1;jettySize=auto;html=1;exitX=1;exitY=0.5;exitDx=0;exitDy=0;entryX=1;entryY=0.25;entryDx=0;entryDy=0;strokeColor=#028090;fontColor=#E4FDE1;endArrow=classic;endFill=1;fillColor=#F45B69;" edge="1" parent="WIyWlLk6GJQsqaUBKTNV-1" source="bWJGfPtAxf72XsbmLZ3L-31" target="bWJGfPtAxf72XsbmLZ3L-10">
          <mxGeometry relative="1" as="geometry">
            <Array as="points">
              <mxPoint x="600" y="865" />
              <mxPoint x="600" y="452" />
            </Array>
          </mxGeometry>
        </mxCell>
        <mxCell id="bWJGfPtAxf72XsbmLZ3L-31" value="[취소] 버튼 클릭 시,&lt;br&gt;&#39;수정중인 내용이 모두 사라집니다, 취소하시겠습니까?&#39; PopConfirm message 출력 후, set data 초기화." style="whiteSpace=wrap;html=1;fillColor=#F45B69;strokeColor=#028090;fontColor=#E4FDE1;rounded=1;glass=0;strokeWidth=1;shadow=0;" vertex="1" parent="WIyWlLk6GJQsqaUBKTNV-1">
          <mxGeometry x="378" y="830" width="200" height="70" as="geometry" />
        </mxCell>
        <mxCell id="bWJGfPtAxf72XsbmLZ3L-39" style="edgeStyle=orthogonalEdgeStyle;rounded=0;orthogonalLoop=1;jettySize=auto;html=1;exitX=0.5;exitY=1;exitDx=0;exitDy=0;entryX=1;entryY=0.25;entryDx=0;entryDy=0;strokeColor=#028090;fontColor=#E4FDE1;endArrow=classic;endFill=1;fillColor=#F45B69;" edge="1" parent="WIyWlLk6GJQsqaUBKTNV-1" source="bWJGfPtAxf72XsbmLZ3L-33" target="bWJGfPtAxf72XsbmLZ3L-10">
          <mxGeometry relative="1" as="geometry">
            <Array as="points">
              <mxPoint x="123" y="1100" />
              <mxPoint x="600" y="1100" />
              <mxPoint x="600" y="453" />
            </Array>
          </mxGeometry>
        </mxCell>
        <mxCell id="bWJGfPtAxf72XsbmLZ3L-33" value="[취소] 버튼 클릭 시,&lt;br&gt;&#39;수정중인 내용이 모두 사라집니다, 취소하시겠습니까?&#39; PopConfirm message 출력 후, set data 초기화." style="whiteSpace=wrap;html=1;fillColor=#F45B69;strokeColor=#028090;fontColor=#E4FDE1;rounded=1;glass=0;strokeWidth=1;shadow=0;" vertex="1" parent="WIyWlLk6GJQsqaUBKTNV-1">
          <mxGeometry x="23" y="985" width="200" height="70" as="geometry" />
        </mxCell>
        <mxCell id="bWJGfPtAxf72XsbmLZ3L-38" style="edgeStyle=orthogonalEdgeStyle;rounded=0;orthogonalLoop=1;jettySize=auto;html=1;entryX=0.5;entryY=0;entryDx=0;entryDy=0;strokeColor=#028090;fontColor=#E4FDE1;endArrow=classic;endFill=1;fillColor=#F45B69;exitX=0.479;exitY=1.093;exitDx=0;exitDy=0;exitPerimeter=0;" edge="1" parent="WIyWlLk6GJQsqaUBKTNV-1" source="bWJGfPtAxf72XsbmLZ3L-35" target="bWJGfPtAxf72XsbmLZ3L-37">
          <mxGeometry relative="1" as="geometry">
            <Array as="points">
              <mxPoint x="190" y="950" />
              <mxPoint x="396" y="950" />
            </Array>
          </mxGeometry>
        </mxCell>
        <mxCell id="bWJGfPtAxf72XsbmLZ3L-35" value="YES" style="text;html=1;align=center;verticalAlign=middle;resizable=0;points=[];autosize=1;strokeColor=none;fillColor=none;fontColor=#E4FDE1;" vertex="1" parent="WIyWlLk6GJQsqaUBKTNV-1">
          <mxGeometry x="166" y="892" width="50" height="30" as="geometry" />
        </mxCell>
        <mxCell id="bWJGfPtAxf72XsbmLZ3L-36" value="" style="edgeStyle=orthogonalEdgeStyle;rounded=0;orthogonalLoop=1;jettySize=auto;html=1;strokeColor=#028090;fontColor=#E4FDE1;endArrow=none;endFill=1;fillColor=#F45B69;" edge="1" parent="WIyWlLk6GJQsqaUBKTNV-1" source="bWJGfPtAxf72XsbmLZ3L-24" target="bWJGfPtAxf72XsbmLZ3L-35">
          <mxGeometry relative="1" as="geometry">
            <mxPoint x="191" y="865" as="sourcePoint" />
            <mxPoint x="191" y="957.5" as="targetPoint" />
          </mxGeometry>
        </mxCell>
        <mxCell id="bWJGfPtAxf72XsbmLZ3L-43" value="" style="edgeStyle=orthogonalEdgeStyle;rounded=0;orthogonalLoop=1;jettySize=auto;html=1;strokeColor=#028090;fontColor=#E4FDE1;endArrow=classic;endFill=1;fillColor=#F45B69;" edge="1" parent="WIyWlLk6GJQsqaUBKTNV-1" source="bWJGfPtAxf72XsbmLZ3L-37" target="bWJGfPtAxf72XsbmLZ3L-42">
          <mxGeometry relative="1" as="geometry" />
        </mxCell>
        <mxCell id="bWJGfPtAxf72XsbmLZ3L-37" value="[저장] 버튼 클릭 시,&lt;br&gt;&#39;저장되었습니다&#39; message 출력 후, api 호출 및 state update." style="whiteSpace=wrap;html=1;fillColor=#F45B69;strokeColor=#028090;fontColor=#E4FDE1;rounded=1;glass=0;strokeWidth=1;shadow=0;" vertex="1" parent="WIyWlLk6GJQsqaUBKTNV-1">
          <mxGeometry x="311" y="985" width="170" height="75" as="geometry" />
        </mxCell>
        <mxCell id="bWJGfPtAxf72XsbmLZ3L-42" value="수정된 설정값 기준&lt;br&gt;사용자의 기본정보 출력.&lt;br&gt;[저장] 은 [톱니바퀴] 로 변경.&lt;br&gt;Top Navigation 우측 user Icon 정보도 함께 update." style="shape=document;whiteSpace=wrap;html=1;boundedLbl=1;fillColor=#76608a;strokeColor=#432D57;fontColor=#ffffff;rounded=1;glass=0;strokeWidth=1;shadow=0;" vertex="1" parent="WIyWlLk6GJQsqaUBKTNV-1">
          <mxGeometry x="300.5" y="1200" width="191" height="130" as="geometry" />
        </mxCell>
      </root>
    </mxGraphModel>
  </diagram>
</mxfile>
